<svg width="113" height="108" viewBox="0 0 113 108" fill="none" xmlns="http://www.w3.org/2000/svg">
<path d="M113 53.7635C113 24.0707 88.9292 0 59.2365 0H53.7635C24.0708 0 0 24.0707 0 53.7635V53.7635C0 83.4563 24.0708 107.527 53.7635 107.527H59.2365C88.9292 107.527 113 83.4563 113 53.7635V53.7635Z" fill="url(#paint0_linear_1_104)"/>
<path d="M53.9704 72L56.7048 69.3011L43.4946 56.0909L56.7048 42.9162L53.9704 40.1818L38.0613 56.0909L53.9704 72ZM74.6025 62.2699V58.3636H42.9619L46.8682 62.2699H74.6025ZM74.6025 53.8182V49.9119H46.8682L42.9619 53.8182H74.6025Z" fill="white"/>
<defs>
<linearGradient id="paint0_linear_1_104" x1="-89.9493" y1="-4.43753" x2="57.2316" y2="111.437" gradientUnits="userSpaceOnUse">
<stop stop-color="#00B0CE"/>
<stop offset="1" stop-color="#00B0CE" stop-opacity="0.3"/>
</linearGradient>
</defs>
</svg>
