<svg width="113" height="108" viewBox="0 0 113 108" fill="none" xmlns="http://www.w3.org/2000/svg">
<path d="M0 53.7635C0 24.0707 24.0708 0 53.7635 0H59.2365C88.9292 0 113 24.0707 113 53.7635V53.7635C113 83.4563 88.9292 107.527 59.2365 107.527H53.7635C24.0708 107.527 0 83.4563 0 53.7635V53.7635Z" fill="url(#paint0_linear_1_96)"/>
<path d="M59.0296 72L56.2952 69.3011L69.5054 56.0909L56.2952 42.9162L59.0296 40.1818L74.9387 56.0909L59.0296 72ZM38.3975 62.2699V58.3636H70.0381L66.1318 62.2699H38.3975ZM38.3975 53.8182V49.9119H66.1318L70.0381 53.8182H38.3975Z" fill="white"/>
<defs>
<linearGradient id="paint0_linear_1_96" x1="202.949" y1="-4.43753" x2="55.7684" y2="111.437" gradientUnits="userSpaceOnUse">
<stop stop-color="#00B0CE"/>
<stop offset="1" stop-color="#00B0CE" stop-opacity="0.3"/>
</linearGradient>
</defs>
</svg>